<svg xmlns="http://www.w3.org/2000/svg" viewBox="0 0 800 500">
  <defs>
    <linearGradient id="sky" x1="0" y1="0" x2="0" y2="1">
      <stop offset="0%" stop-color="#70d6ff"/>
      <stop offset="100%" stop-color="#dff8ff"/>
    </linearGradient>
    <linearGradient id="fairway" x1="0" y1="0" x2="0" y2="1">
      <stop offset="0%" stop-color="#9adf57"/>
      <stop offset="100%" stop-color="#65b939"/>
    </linearGradient>
    <linearGradient id="club" x1="0" y1="0" x2="1" y2="1">
      <stop offset="0%" stop-color="#f4f4f4"/>
      <stop offset="100%" stop-color="#222"/>
    </linearGradient>
  </defs>
  <rect width="800" height="500" fill="url(#sky)"/>
  <ellipse cx="180" cy="95" rx="32" ry="16" fill="#fff" opacity=".9"/>
  <ellipse cx="470" cy="70" rx="38" ry="18" fill="#fff" opacity=".92"/>
  <ellipse cx="680" cy="100" rx="32" ry="14" fill="#fff" opacity=".88"/>
  <path d="M0 305C120 228 220 220 330 248C438 276 514 308 611 289C693 273 753 236 800 220V500H0Z" fill="#8bd44c"/>
  <path d="M0 332C108 262 224 258 336 292C440 325 534 347 637 325C704 311 760 282 800 268V500H0Z" fill="url(#fairway)"/>
  <path d="M10 410C132 356 250 350 349 370C448 390 548 415 680 398C739 391 777 371 800 358V500H10Z" fill="#4ea53b"/>
  <path d="M546 284C613 309 659 360 698 500H800V285C752 274 698 265 634 266C601 267 571 273 546 284Z" fill="#5db4d8"/>
  <path d="M576 292C623 310 660 351 694 500H757C736 405 688 338 628 297Z" fill="#6ac5e5"/>
  <ellipse cx="364" cy="342" rx="42" ry="16" fill="#e3d59a"/>
  <ellipse cx="618" cy="312" rx="34" ry="12" fill="#e3d59a"/>
  <ellipse cx="463" cy="203" rx="52" ry="26" fill="#94b7a2" opacity=".7"/>
  <ellipse cx="634" cy="198" rx="45" ry="22" fill="#88b3a0" opacity=".7"/>
  <ellipse cx="126" cy="254" rx="62" ry="38" fill="#98d95b"/>
  <ellipse cx="262" cy="262" rx="110" ry="48" fill="#7bc34d"/>
  <rect x="0" y="386" width="800" height="8" fill="#316826" opacity=".6"/>
  <g fill="#2b7c2d">
    <ellipse cx="86" cy="238" rx="11" ry="18"/>
    <ellipse cx="108" cy="228" rx="10" ry="17"/>
    <ellipse cx="564" cy="244" rx="9" ry="15"/>
    <ellipse cx="584" cy="239" rx="10" ry="18"/>
    <ellipse cx="677" cy="246" rx="12" ry="19"/>
  </g>
  <g fill="#2a6a20">
    <rect x="92" y="238" width="4" height="38"/>
    <rect x="110" y="228" width="4" height="44"/>
    <rect x="566" y="244" width="4" height="34"/>
    <rect x="586" y="239" width="4" height="36"/>
    <rect x="680" y="246" width="4" height="42"/>
  </g>
  <path d="M0 298L118 132" stroke="#4f4f4f" stroke-width="7" stroke-linecap="round"/>
  <path d="M103 383C131 361 175 366 199 398C168 422 126 421 103 383Z" fill="url(#club)"/>
  <ellipse cx="180" cy="344" rx="18" ry="18" fill="#fff"/>
  <ellipse cx="180" cy="344" rx="18" ry="18" fill="none" stroke="#d5d5d5" stroke-width="3"/>
</svg>
