<svg xmlns="http://www.w3.org/2000/svg" viewBox="0 0 1400 220">
  <defs>
    <linearGradient id="sky" x1="0" y1="0" x2="0" y2="1">
      <stop offset="0%" stop-color="#b9e5ff"/>
      <stop offset="100%" stop-color="#f0fbff"/>
    </linearGradient>
  </defs>
  <rect width="1400" height="220" fill="url(#sky)"/>
  <ellipse cx="220" cy="34" rx="46" ry="16" fill="#fff" opacity=".9"/>
  <ellipse cx="680" cy="24" rx="54" ry="18" fill="#fff" opacity=".88"/>
  <ellipse cx="1180" cy="42" rx="42" ry="14" fill="#fff" opacity=".9"/>
  <path d="M0 150C170 124 338 120 494 134C652 148 832 160 1038 144C1160 134 1278 112 1400 96V220H0Z" fill="#8dd64c"/>
  <path d="M0 164C180 138 360 136 534 150C722 166 900 176 1118 162C1222 154 1312 140 1400 128V220H0Z" fill="#6fbe36"/>
  <path d="M0 182C176 156 376 156 566 168C758 180 950 188 1170 176C1264 170 1338 160 1400 152V220H0Z" fill="#8acb4d"/>
  <path d="M936 142C1028 132 1126 130 1234 142C1296 150 1348 164 1400 180V220H820C854 180 892 154 936 142Z" fill="#e9d19c"/>
  <path d="M952 148C1038 140 1134 142 1236 154C1286 160 1330 172 1378 188V220H864C890 188 920 160 952 148Z" fill="#f4e4bf"/>
  <ellipse cx="366" cy="154" rx="176" ry="42" fill="#9fe248"/>
  <ellipse cx="376" cy="158" rx="146" ry="34" fill="#b7ee55"/>
  <ellipse cx="398" cy="164" rx="98" ry="24" fill="#2d9d43"/>
  <ellipse cx="408" cy="166" rx="70" ry="16" fill="#a9e84d"/>
  <ellipse cx="420" cy="166" rx="20" ry="8" fill="#252525"/>
  <rect x="414" y="82" width="5" height="78" fill="#fff"/>
  <path d="M419 86h28l-28 12z" fill="#e32323"/>
  <ellipse cx="330" cy="174" rx="10" ry="10" fill="#fff"/>
  <ellipse cx="330" cy="174" rx="10" ry="10" fill="none" stroke="#dcdcdc" stroke-width="2"/>
  <g fill="#4ea53a" opacity=".95">
    <ellipse cx="94" cy="100" rx="70" ry="22"/>
    <ellipse cx="126" cy="92" rx="58" ry="20"/>
    <ellipse cx="1210" cy="96" rx="140" ry="26"/>
    <ellipse cx="1272" cy="88" rx="110" ry="22"/>
  </g>
</svg>
